<svg width="842" height="271" viewBox="0 0 842 271" fill="none" xmlns="http://www.w3.org/2000/svg">
<g clip-path="url(#clip0)">
<path d="M103.344 110.739H70.0956V168H51.3326V26.4509H98.1915C114.135 26.4509 126.385 30.0804 134.94 37.3393C143.56 44.5982 147.87 55.1626 147.87 69.0323C147.87 77.8467 145.472 85.5269 140.676 92.0729C135.944 98.6189 129.334 103.512 120.843 106.753L154.092 166.833V168H134.065L103.344 110.739ZM70.0956 95.4755H98.7749C108.043 95.4755 115.399 93.0775 120.843 88.2814C126.352 83.4854 129.107 77.069 129.107 69.0323C129.107 60.2827 126.482 53.5747 121.232 48.9082C116.047 44.2418 108.529 41.8761 98.6776 41.8113H70.0956V95.4755ZM395.775 26.4509L442.051 141.946L488.326 26.4509H512.534V168H493.868V112.878L495.618 53.3803L449.148 168H434.857L388.484 53.6719L390.331 112.878V168H371.665V26.4509H395.775ZM625.403 131.057H566.101L552.782 168H533.533L587.586 26.4509H603.918L658.069 168H638.917L625.403 131.057ZM571.739 115.697H619.862L595.752 49.4915L571.739 115.697ZM785.91 168H767.147L695.886 58.9217V168H677.123V26.4509H695.886L767.341 136.015V26.4509H785.91V168Z" fill="black"/>
<path d="M354 99.1949C348.036 103.82 341.969 108.446 335.903 113.291L326.649 120.67C325.106 121.881 323.461 123.092 321.713 124.304C319.965 125.515 318.32 126.727 316.675 127.938C303.204 137.519 289.632 146.99 276.162 156.351L264.439 164.5L272.768 152.386C278.012 144.787 281.92 136.197 284.593 127.167C285.93 122.652 286.958 118.027 287.575 113.291C287.986 110.978 288.089 108.556 288.398 106.243L288.603 102.719L288.706 100.957V99.1949V95.6709L288.501 92.1468L288.398 90.3848C288.295 89.8342 288.295 89.1734 288.192 88.6228L287.781 85.0987C287.061 80.4734 286.033 75.8481 284.799 71.2228C282.125 62.1924 278.218 53.4924 272.974 46.0038L264.748 34L276.47 42.0392C289.94 51.4 303.513 60.8709 316.983 70.4519C318.628 71.6633 320.376 72.8747 322.021 74.0861C322.844 74.6367 323.769 75.2975 324.592 75.8481C325.415 76.5089 326.134 77.0595 326.957 77.7203L336.211 85.0987C341.969 89.9443 348.036 94.5696 354 99.1949ZM354 99.1949C346.802 94.5696 339.605 90.1646 332.51 85.8696L321.919 79.4823C321.096 78.9316 320.171 78.4911 319.348 77.9405C318.525 77.3899 317.703 76.8392 316.88 76.2886C315.338 75.1873 313.693 74.0861 312.047 72.9848C299.091 64.2848 286.136 55.4747 273.282 46.5544L276.778 42.5899C282.331 50.7392 286.444 59.8798 289.323 69.4608C290.763 74.3063 291.791 79.1519 292.511 84.1076L292.922 87.8519C293.025 88.5127 293.025 89.0633 293.128 89.724L293.23 91.5962L293.436 95.3405V99.0848V100.957L293.333 102.829L293.128 106.573C292.922 109.106 292.716 111.529 292.305 114.062C291.585 119.018 290.557 123.973 289.117 128.709C286.238 138.29 282.125 147.43 276.573 155.58L273.077 151.615C286.033 142.695 298.886 133.885 311.842 125.185C313.487 124.084 315.132 122.982 316.675 121.881C318.217 120.78 319.862 119.678 321.713 118.687L332.304 112.3C339.502 108.225 346.699 103.71 354 99.1949Z" fill="black"/>
<path d="M166 99.1949C173.301 103.82 180.498 108.225 187.49 112.52L198.081 118.908C199.829 119.899 201.475 121 203.12 122.101C204.662 123.203 206.307 124.304 207.953 125.405C220.909 134.105 233.864 142.915 246.718 151.835L243.222 155.8C237.669 147.651 233.453 138.51 230.677 128.929C229.237 124.194 228.209 119.238 227.489 114.282C227.078 111.859 226.872 109.327 226.667 106.794L226.461 103.049L226.358 101.177V99.3051V95.5608L226.564 91.8165L226.667 89.9443C226.77 89.2835 226.77 88.7329 226.872 88.0721L227.284 84.3279C228.003 79.3722 229.135 74.5266 230.471 69.681C233.35 60.1 237.463 50.9595 243.016 42.8101L246.512 46.7747C233.556 55.6949 220.703 64.5051 207.747 73.2051C206.102 74.3063 204.457 75.4076 202.914 76.5089C202.092 77.0595 201.372 77.6101 200.446 78.1608C199.624 78.7114 198.698 79.1519 197.876 79.7025L187.285 86.0899C180.395 90.1646 173.198 94.5696 166 99.1949ZM166 99.1949C171.964 94.5696 178.031 89.9443 184.2 85.0987L193.454 77.7203C194.277 77.0595 194.997 76.5089 195.819 75.8481C196.642 75.1873 197.464 74.6367 198.39 74.0861C200.138 72.8747 201.783 71.6633 203.428 70.4519C216.898 60.8709 230.471 51.4 243.941 42.0392L255.663 34L247.437 46.0038C242.296 53.6025 238.286 62.3025 235.612 71.2228C234.276 75.738 233.35 80.3633 232.631 85.0987L232.219 88.6228C232.116 89.1734 232.116 89.8342 232.014 90.3848L231.911 92.1468L231.705 95.6709V99.1949V100.957L231.808 102.719L232.014 106.243C232.219 108.556 232.425 110.978 232.836 113.291C233.453 118.027 234.481 122.652 235.818 127.167C238.492 136.197 242.399 144.787 247.643 152.386L255.972 164.5L244.25 156.351C230.78 146.99 217.207 137.519 203.737 127.938C202.092 126.727 200.344 125.515 198.698 124.304C196.95 123.092 195.305 121.881 193.763 120.67L184.508 113.291C177.928 108.446 171.964 103.71 166 99.1949Z" fill="black"/>
<path d="M90.9054 227.96C90.9054 235.132 89.2649 240.91 85.9839 245.294C82.7029 249.679 78.2604 251.871 72.6565 251.871C66.9365 251.871 62.4359 250.056 59.1549 246.427V269.118H51.0975V203.875H58.458L58.85 209.101C62.1311 205.036 66.6897 203.004 72.5258 203.004C78.1878 203.004 82.6593 205.138 85.9403 209.406C89.2504 213.675 90.9054 219.612 90.9054 227.22V227.96ZM82.848 227.046C82.848 221.732 81.7156 217.536 79.4509 214.459C77.1861 211.381 74.0793 209.842 70.1304 209.842C65.2524 209.842 61.5939 212.005 59.1549 216.331V238.849C61.5649 243.146 65.2524 245.294 70.2175 245.294C74.0793 245.294 77.1425 243.77 79.4073 240.721C81.7011 237.644 82.848 233.085 82.848 227.046ZM159.642 211.105C158.422 210.902 157.101 210.8 155.678 210.8C150.394 210.8 146.808 213.05 144.921 217.551V251H136.863V203.875H144.703L144.833 209.319C147.476 205.109 151.221 203.004 156.07 203.004C157.638 203.004 158.829 203.207 159.642 203.614V211.105ZM199.763 227.002C199.763 222.385 200.663 218.233 202.464 214.546C204.293 210.858 206.819 208.013 210.042 206.009C213.294 204.006 216.996 203.004 221.148 203.004C227.565 203.004 232.748 205.225 236.697 209.668C240.674 214.11 242.663 220.019 242.663 227.394V227.96C242.663 232.548 241.778 236.671 240.007 240.329C238.265 243.959 235.753 246.79 232.472 248.822C229.22 250.855 225.474 251.871 221.235 251.871C214.847 251.871 209.664 249.65 205.686 245.207C201.738 240.765 199.763 234.885 199.763 227.568V227.002ZM207.864 227.96C207.864 233.187 209.069 237.382 211.479 240.547C213.918 243.712 217.17 245.294 221.235 245.294C225.329 245.294 228.581 243.698 230.991 240.504C233.401 237.281 234.606 232.78 234.606 227.002C234.606 221.834 233.372 217.652 230.904 214.459C228.465 211.236 225.213 209.624 221.148 209.624C217.17 209.624 213.962 211.207 211.523 214.371C209.084 217.536 207.864 222.066 207.864 227.96ZM286.487 227.046C286.487 219.816 288.2 214.009 291.626 209.624C295.053 205.211 299.539 203.004 305.084 203.004C310.601 203.004 314.971 204.891 318.194 208.666V184.102H326.251V251H318.847L318.455 245.948C315.232 249.897 310.746 251.871 304.997 251.871C299.539 251.871 295.082 249.635 291.626 245.164C288.2 240.692 286.487 234.856 286.487 227.655V227.046ZM294.544 227.96C294.544 233.303 295.648 237.484 297.854 240.504C300.061 243.523 303.11 245.033 307.001 245.033C312.111 245.033 315.842 242.739 318.194 238.152V216.506C315.784 212.063 312.082 209.842 307.088 209.842C303.139 209.842 300.061 211.366 297.854 214.415C295.648 217.464 294.544 221.979 294.544 227.96ZM403.568 246.34C400.432 250.027 395.83 251.871 389.761 251.871C384.738 251.871 380.905 250.419 378.263 247.516C375.65 244.583 374.329 240.257 374.3 234.537V203.875H382.357V234.319C382.357 241.462 385.261 245.033 391.068 245.033C397.223 245.033 401.317 242.739 403.35 238.152V203.875H411.407V251H403.742L403.568 246.34ZM478.271 245.294C481.145 245.294 483.657 244.423 485.805 242.681C487.954 240.939 489.145 238.761 489.377 236.148H496.999C496.854 238.849 495.924 241.418 494.211 243.857C492.498 246.296 490.204 248.242 487.33 249.693C484.484 251.145 481.465 251.871 478.271 251.871C471.854 251.871 466.744 249.737 462.94 245.469C459.165 241.171 457.278 235.306 457.278 227.873V226.523C457.278 221.935 458.12 217.856 459.804 214.284C461.488 210.713 463.898 207.94 467.034 205.966C470.199 203.991 473.93 203.004 478.227 203.004C483.512 203.004 487.896 204.586 491.38 207.751C494.894 210.916 496.766 215.025 496.999 220.077H489.377C489.145 217.028 487.983 214.531 485.893 212.586C483.831 210.611 481.276 209.624 478.227 209.624C474.133 209.624 470.954 211.105 468.689 214.067C466.453 216.999 465.335 221.253 465.335 226.828V228.352C465.335 233.782 466.453 237.963 468.689 240.896C470.925 243.828 474.119 245.294 478.271 245.294ZM552.669 192.464V203.875H561.467V210.103H552.669V239.328C552.669 241.215 553.061 242.638 553.845 243.596C554.629 244.525 555.964 244.99 557.852 244.99C558.781 244.99 560.058 244.815 561.684 244.467V251C559.565 251.581 557.503 251.871 555.5 251.871C551.899 251.871 549.185 250.782 547.355 248.605C545.526 246.427 544.611 243.335 544.611 239.328V210.103H536.031V203.875H544.611V192.464H552.669ZM615.351 251H607.294V203.875H615.351V251ZM606.64 191.375C606.64 190.069 607.032 188.965 607.816 188.065C608.629 187.165 609.82 186.715 611.388 186.715C612.956 186.715 614.146 187.165 614.959 188.065C615.772 188.965 616.179 190.069 616.179 191.375C616.179 192.682 615.772 193.771 614.959 194.642C614.146 195.513 612.956 195.948 611.388 195.948C609.82 195.948 608.629 195.513 607.816 194.642C607.032 193.771 606.64 192.682 606.64 191.375ZM661.832 227.002C661.832 222.385 662.732 218.233 664.532 214.546C666.361 210.858 668.887 208.013 672.11 206.009C675.362 204.006 679.064 203.004 683.216 203.004C689.633 203.004 694.816 205.225 698.765 209.668C702.743 214.11 704.732 220.019 704.732 227.394V227.96C704.732 232.548 703.846 236.671 702.075 240.329C700.333 243.959 697.821 246.79 694.54 248.822C691.288 250.855 687.543 251.871 683.303 251.871C676.916 251.871 671.733 249.65 667.755 245.207C663.806 240.765 661.832 234.885 661.832 227.568V227.002ZM669.932 227.96C669.932 233.187 671.137 237.382 673.547 240.547C675.986 243.712 679.238 245.294 683.303 245.294C687.397 245.294 690.649 243.698 693.059 240.504C695.469 237.281 696.674 232.78 696.674 227.002C696.674 221.834 695.44 217.652 692.972 214.459C690.533 211.236 687.281 209.624 683.216 209.624C679.238 209.624 676.03 211.207 673.591 214.371C671.152 217.536 669.932 222.066 669.932 227.96ZM758.137 203.875L758.398 209.798C761.999 205.269 766.703 203.004 772.51 203.004C782.469 203.004 787.492 208.622 787.579 219.859V251H779.522V219.816C779.493 216.418 778.709 213.907 777.17 212.281C775.66 210.655 773.294 209.842 770.071 209.842C767.458 209.842 765.164 210.539 763.189 211.932C761.215 213.326 759.676 215.155 758.573 217.42V251H750.515V203.875H758.137Z" fill="black"/>
</g>
<defs>
<clipPath id="clip0">
<rect width="842" height="271" fill="white"/>
</clipPath>
</defs>
</svg>


